<svg width="16.000000" height="16.000000" viewBox="0 0 16 16" fill="none" xmlns="http://www.w3.org/2000/svg" xmlns:xlink="http://www.w3.org/1999/xlink">
	<desc>
			Created with Pixso.
	</desc>
	<defs>
		<clipPath id="clip13_1696">
			<rect id="Add/Outline" width="16.000000" height="16.000000" transform="translate(-0.500000 0.000000)" fill="white" fill-opacity="0"/>
		</clipPath>
	</defs>
	<rect id="Add/Outline" width="16.000000" height="16.000000" transform="translate(-0.500000 0.000000)" fill="#FFFFFF" fill-opacity="0"/>
	<g clip-path="url(#clip13_1696)">
		<path id="Vector" d="M7.5 12.66C7.31 12.66 7.15 12.6 7.02 12.47C6.89 12.34 6.83 12.18 6.83 12L6.83 8.66L3.5 8.66C3.31 8.66 3.15 8.6 3.02 8.47C2.89 8.34 2.83 8.18 2.83 8C2.83 7.81 2.89 7.65 3.02 7.52C3.15 7.39 3.31 7.33 3.5 7.33L6.83 7.33L6.83 4C6.83 3.81 6.89 3.65 7.02 3.52C7.15 3.39 7.31 3.33 7.5 3.33C7.68 3.33 7.84 3.39 7.97 3.52C8.1 3.65 8.16 3.81 8.16 4L8.16 7.33L11.5 7.33C11.68 7.33 11.84 7.39 11.97 7.52C12.1 7.65 12.16 7.81 12.16 8C12.16 8.18 12.1 8.34 11.97 8.47C11.84 8.6 11.68 8.66 11.5 8.66L8.16 8.66L8.16 12C8.16 12.18 8.1 12.34 7.97 12.47C7.84 12.6 7.68 12.66 7.5 12.66Z" fill="#0F4CDB" fill-opacity="1.000000" fill-rule="nonzero"/>
	</g>
</svg>
