<svg width="40.000000" height="40.000000" viewBox="0 0 40 40" fill="none" xmlns="http://www.w3.org/2000/svg" xmlns:xlink="http://www.w3.org/1999/xlink">
	<desc>
			Created with Pixso.
	</desc>
	<defs>
		<clipPath id="clip13_841">
			<rect id="Filter" width="24.000000" height="24.000000" transform="translate(8.000000 8.000000)" fill="white" fill-opacity="0"/>
		</clipPath>
	</defs>
	<rect id="Filter" width="24.000000" height="24.000000" transform="translate(8.000000 8.000000)" fill="#FFFFFF" fill-opacity="0"/>
	<g clip-path="url(#clip13_841)">
		<path id="Vector" d="M19 28C18.71 28 18.47 27.9 18.28 27.71C18.09 27.52 18 27.28 18 27L18 21L12.2 13.6C11.95 13.26 11.91 12.91 12.08 12.55C12.26 12.18 12.56 12 13 12L27 12C27.43 12 27.73 12.18 27.91 12.55C28.08 12.91 28.04 13.26 27.79 13.6L22 21L22 27C22 27.28 21.9 27.52 21.71 27.71C21.52 27.9 21.28 28 21 28L19 28Z" fill="#0B2235" fill-opacity="1.000000" fill-rule="nonzero"/>
	</g>
	<rect id="Icon Button" rx="3.500000" width="39.000000" height="39.000000" transform="translate(0.500000 0.500000)" stroke="#0F4CDB" stroke-opacity="1.000000" stroke-width="1.000000"/>
</svg>
