<svg width="20.000000" height="16.000000" viewBox="0 0 20 16" fill="none" xmlns="http://www.w3.org/2000/svg" xmlns:xlink="http://www.w3.org/1999/xlink">
	<desc>
			Created with Pixso.
	</desc>
	<defs/>
	<path id="Vector" d="M1.5 15C0.94 15 0.47 14.8 0.08 14.41C-0.31 14.02 -0.5 13.55 -0.5 13L-0.5 1C-0.5 0.45 -0.31 -0.03 0.08 -0.42C0.47 -0.81 0.94 -1 1.5 -1L17.5 -1C18.04 -1 18.52 -0.81 18.91 -0.42C19.3 -0.03 19.5 0.45 19.5 1L19.5 13C19.5 13.55 19.3 14.02 18.91 14.41C18.52 14.8 18.04 15 17.5 15L1.5 15ZM17.5 3L10.02 7.67C9.94 7.72 9.85 7.76 9.76 7.78C9.67 7.81 9.58 7.82 9.5 7.82C9.41 7.82 9.32 7.81 9.23 7.78C9.14 7.76 9.05 7.72 8.97 7.67L1.5 3L1.5 13L17.5 13L17.5 3ZM9.5 6L17.5 1L1.5 1L9.5 6ZM1.5 3L1.5 3.25L1.5 1.77L1.5 1.8L1.5 1L1.5 1.8L1.5 1.78L1.5 3.25L1.5 3L1.5 13L1.5 3Z" fill="#0B2235" fill-opacity="1.000000" fill-rule="nonzero"/>
</svg>
