<svg width="24.000000" height="40.000000" viewBox="0 0 24 40" fill="none" xmlns="http://www.w3.org/2000/svg" xmlns:xlink="http://www.w3.org/1999/xlink">
	<desc>
			Created with Pixso.
	</desc>
	<defs>
		<clipPath id="clip4820_23619">
			<rect id="chevron/left" width="24.000000" height="24.000000" transform="translate(0.000000 8.000000)" fill="white" fill-opacity="0"/>
		</clipPath>
	</defs>
	<rect id="chevron/left" width="24.000000" height="24.000000" transform="translate(0.000000 8.000000)" fill="#FFFFFF" fill-opacity="0"/>
	<g clip-path="url(#clip4820_23619)">
		<path id="Vector" d="M10.8 20L14.7 23.9C14.88 24.08 14.97 24.31 14.97 24.6C14.97 24.88 14.88 25.11 14.7 25.3C14.51 25.48 14.28 25.57 14 25.57C13.71 25.57 13.48 25.48 13.3 25.3L8.69 20.7C8.6 20.6 8.52 20.49 8.48 20.37C8.44 20.25 8.42 20.13 8.42 20C8.42 19.86 8.44 19.74 8.48 19.62C8.52 19.5 8.6 19.4 8.69 19.29L13.3 14.7C13.48 14.51 13.71 14.42 14 14.42C14.28 14.42 14.51 14.51 14.7 14.7C14.88 14.88 14.97 15.11 14.97 15.4C14.97 15.68 14.88 15.91 14.7 16.1L10.8 20Z" fill="#0B2235" fill-opacity="1.000000" fill-rule="nonzero"/>
	</g>
</svg>
