<svg  viewBox="0 0 18 18" fill="none" xmlns="http://www.w3.org/2000/svg" xmlns:xlink="http://www.w3.org/1999/xlink">
	<desc>
			Created with Pixso.
	</desc>
	<defs/>
	<path id="Vector" d="M2 17C1.44 17 0.97 16.8 0.58 16.41C0.19 16.02 0 15.55 0 15L0 1C0 0.45 0.19 -0.03 0.58 -0.42C0.97 -0.81 1.44 -1 2 -1L16 -1C16.54 -1 17.02 -0.81 17.41 -0.42C17.8 -0.03 18 0.45 18 1L18 15C18 15.55 17.8 16.02 17.41 16.41C17.02 16.8 16.54 17 16 17L2 17ZM2 15L16 15L16 1L2 1L2 15Z" fill="#0B2235" fill-opacity="1.000000" fill-rule="nonzero"/>
</svg>
