<svg width="20.000000" height="20.000000" viewBox="0 0 20 20" fill="none" xmlns="http://www.w3.org/2000/svg" xmlns:xlink="http://www.w3.org/1999/xlink">
	<desc>
			Created with Pixso.
	</desc>
	<defs/>
	<path id="Vector" d="M2 19C1.44 19 0.97 18.8 0.58 18.41C0.19 18.02 0 17.55 0 17L0 1C0 0.45 0.19 -0.03 0.58 -0.42C0.97 -0.81 1.44 -1 2 -1L10 -1L16 5L16 11L14 11L14 6L9 6L9 1L2 1L2 17L11 17L11 19L2 19ZM17.95 19.37L15 16.42L15 18.65L13 18.65L13 13L18.65 13L18.65 15L16.4 15L19.35 17.95L17.95 19.37Z" fill="#0B2235" fill-opacity="1.000000" fill-rule="nonzero"/>
</svg>
