<svg width="24.000000" height="24.000000" viewBox="0 0 24 24" fill="none" xmlns="http://www.w3.org/2000/svg" xmlns:xlink="http://www.w3.org/1999/xlink">
	<desc>
			Created with Pixso.
	</desc>
	<defs>
		<clipPath id="clip13_1735">
			<rect id="chevron/right" width="24.000000" height="24.000000" fill="white" fill-opacity="0"/>
		</clipPath>
	</defs>
	<rect id="chevron/right" width="24.000000" height="24.000000" fill="#FFFFFF" fill-opacity="0"/>
	<g clip-path="url(#clip13_1735)">
		<path id="Vector" d="M12.6 12L8.69 8.09C8.51 7.91 8.42 7.68 8.42 7.39C8.42 7.11 8.51 6.88 8.69 6.69C8.88 6.51 9.11 6.42 9.4 6.42C9.68 6.42 9.91 6.51 10.1 6.69L14.7 11.3C14.8 11.4 14.87 11.5 14.91 11.62C14.95 11.74 14.97 11.86 14.97 12C14.97 12.13 14.95 12.25 14.91 12.37C14.87 12.49 14.8 12.6 14.7 12.7L10.1 17.29C9.91 17.48 9.68 17.57 9.4 17.57C9.11 17.57 8.88 17.48 8.69 17.29C8.51 17.11 8.42 16.88 8.42 16.6C8.42 16.31 8.51 16.08 8.69 15.9L12.6 12Z" fill="#0B2235" fill-opacity="1.000000" fill-rule="nonzero"/>
	</g>
</svg>
