<svg width="24.000000" height="40.000000" viewBox="0 0 24 40" fill="none" xmlns="http://www.w3.org/2000/svg" xmlns:xlink="http://www.w3.org/1999/xlink">
	<desc>
			Created with Pixso.
	</desc>
	<defs>
		<clipPath id="clip4820_23622">
			<rect id="chevron/right" width="24.000000" height="24.000000" transform="translate(0.000000 8.000000)" fill="white" fill-opacity="0"/>
		</clipPath>
	</defs>
	<rect id="chevron/right" width="24.000000" height="24.000000" transform="translate(0.000000 8.000000)" fill="#FFFFFF" fill-opacity="0"/>
	<g clip-path="url(#clip4820_23622)">
		<path id="Vector" d="M12.6 20L8.69 16.1C8.51 15.91 8.42 15.68 8.42 15.4C8.42 15.11 8.51 14.88 8.69 14.7C8.88 14.51 9.11 14.42 9.4 14.42C9.68 14.42 9.91 14.51 10.1 14.7L14.7 19.29C14.8 19.4 14.87 19.5 14.91 19.62C14.95 19.74 14.97 19.86 14.97 20C14.97 20.13 14.95 20.25 14.91 20.37C14.87 20.49 14.8 20.6 14.7 20.7L10.1 25.3C9.91 25.48 9.68 25.57 9.4 25.57C9.11 25.57 8.88 25.48 8.69 25.3C8.51 25.11 8.42 24.88 8.42 24.6C8.42 24.31 8.51 24.08 8.69 23.9L12.6 20Z" fill="#0B2235" fill-opacity="1.000000" fill-rule="nonzero"/>
	</g>
</svg>
