<svg width="20.000000" height="18.000000" viewBox="0 0 20 18" fill="none" xmlns="http://www.w3.org/2000/svg" xmlns:xlink="http://www.w3.org/1999/xlink">
	<desc>
			Created with Pixso.
	</desc>
	<defs/>
	<path id="Vector" d="M5.5 8C5.78 8 6.02 7.9 6.21 7.71C6.4 7.52 6.5 7.28 6.5 7C6.5 6.71 6.4 6.47 6.21 6.28C6.02 6.09 5.78 6 5.5 6C5.21 6 4.97 6.09 4.78 6.28C4.59 6.47 4.5 6.71 4.5 7C4.5 7.28 4.59 7.52 4.78 7.71C4.97 7.9 5.21 8 5.5 8ZM9.5 8C9.78 8 10.02 7.9 10.21 7.71C10.4 7.52 10.5 7.28 10.5 7C10.5 6.71 10.4 6.47 10.21 6.28C10.02 6.09 9.78 6 9.5 6C9.21 6 8.97 6.09 8.78 6.28C8.59 6.47 8.5 6.71 8.5 7C8.5 7.28 8.59 7.52 8.78 7.71C8.97 7.9 9.21 8 9.5 8ZM13.5 8C13.78 8 14.02 7.9 14.21 7.71C14.4 7.52 14.5 7.28 14.5 7C14.5 6.71 14.4 6.47 14.21 6.28C14.02 6.09 13.78 6 13.5 6C13.21 6 12.97 6.09 12.78 6.28C12.59 6.47 12.5 6.71 12.5 7C12.5 7.28 12.59 7.52 12.78 7.71C12.97 7.9 13.21 8 13.5 8ZM3.5 15L1.19 17.3C0.88 17.61 0.52 17.68 0.11 17.51C-0.3 17.33 -0.5 17.02 -0.5 16.57L-0.5 1C-0.5 0.45 -0.31 -0.03 0.08 -0.42C0.47 -0.81 0.94 -1 1.5 -1L17.5 -1C18.04 -1 18.52 -0.81 18.91 -0.42C19.3 -0.03 19.5 0.45 19.5 1L19.5 13C19.5 13.55 19.3 14.02 18.91 14.41C18.52 14.8 18.04 15 17.5 15L3.5 15ZM2.64 13L17.5 13L17.5 1L1.5 1L1.5 14.12L2.64 13Z" fill="#000000" fill-opacity="1.000000" fill-rule="nonzero"/>
</svg>
