<svg width="18.000000" height="18.000000" viewBox="0 0 18 18" fill="none" xmlns="http://www.w3.org/2000/svg" xmlns:xlink="http://www.w3.org/1999/xlink">
	<desc>
			Created with Pixso.
	</desc>
	<defs/>
	<path id="Vector" d="M16.45 17C14.36 17 12.3 16.54 10.27 15.63C8.24 14.72 6.39 13.44 4.72 11.77C3.05 10.1 1.77 8.25 0.86 6.22C-0.05 4.19 -0.5 2.13 -0.5 0.05C-0.5 -0.25 -0.4 -0.5 -0.2 -0.7C0 -0.9 0.25 -1 0.55 -1L4.6 -1C4.83 -1 5.04 -0.93 5.22 -0.77C5.4 -0.61 5.51 -0.42 5.55 -0.2L6.19 3.3C6.23 3.56 6.22 3.79 6.17 3.97C6.12 4.15 6.03 4.31 5.89 4.45L3.47 6.9C3.8 7.51 4.2 8.11 4.66 8.68C5.12 9.26 5.62 9.81 6.17 10.35C6.69 10.86 7.23 11.34 7.8 11.78C8.36 12.22 8.96 12.63 9.6 13L11.95 10.65C12.1 10.5 12.29 10.38 12.53 10.31C12.77 10.23 13.01 10.21 13.25 10.25L16.7 10.95C16.93 11.01 17.12 11.13 17.27 11.31C17.42 11.48 17.5 11.68 17.5 11.9L17.5 15.95C17.5 16.25 17.39 16.5 17.2 16.7C17 16.9 16.75 17 16.45 17Z" fill="#0B2235" fill-opacity="1.000000" fill-rule="nonzero"/>
</svg>
