<svg width="24.000000" height="24.000000" viewBox="0 0 24 24" fill="none" xmlns="http://www.w3.org/2000/svg" xmlns:xlink="http://www.w3.org/1999/xlink">
	<desc>
			Created with Pixso.
	</desc>
	<defs>
		<clipPath id="clip4820_23619">
			<rect id="chevron/left" width="24.000000" height="24.000000" fill="white" fill-opacity="0"/>
		</clipPath>
	</defs>
	<rect id="chevron/left" width="24.000000" height="24.000000" fill="#FFFFFF" fill-opacity="0"/>
	<g clip-path="url(#clip4820_23619)">
		<path id="Vector" d="M10.8 12L14.7 15.9C14.88 16.08 14.97 16.31 14.97 16.6C14.97 16.88 14.88 17.11 14.7 17.29C14.51 17.48 14.28 17.57 14 17.57C13.71 17.57 13.48 17.48 13.3 17.29L8.69 12.7C8.6 12.6 8.52 12.49 8.48 12.37C8.44 12.25 8.42 12.13 8.42 12C8.42 11.86 8.44 11.74 8.48 11.62C8.52 11.5 8.6 11.4 8.69 11.3L13.3 6.69C13.48 6.51 13.71 6.42 14 6.42C14.28 6.42 14.51 6.51 14.7 6.69C14.88 6.88 14.97 7.11 14.97 7.39C14.97 7.68 14.88 7.91 14.7 8.09L10.8 12Z" fill="#0B2235" fill-opacity="1.000000" fill-rule="nonzero"/>
	</g>
</svg>
