<svg width="15.000000" height="19.000000" viewBox="0 0 15 19" fill="none" xmlns="http://www.w3.org/2000/svg" xmlns:xlink="http://www.w3.org/1999/xlink">
	<desc>
			Created with Pixso.
	</desc>
	<defs/>
	<path id="Vector" d="M4 10C3.71 10 3.47 9.9 3.28 9.71C3.09 9.52 3 9.28 3 9L3 2.82L1.12 4.7C0.94 4.88 0.71 4.97 0.43 4.97C0.16 4.97 -0.08 4.88 -0.28 4.7C-0.48 4.5 -0.58 4.26 -0.58 3.98C-0.58 3.71 -0.48 3.47 -0.28 3.27L3.3 -0.3C3.4 -0.4 3.5 -0.48 3.62 -0.52C3.74 -0.56 3.86 -0.58 4 -0.58C4.13 -0.58 4.25 -0.56 4.37 -0.52C4.49 -0.48 4.6 -0.4 4.7 -0.3L8.3 3.3C8.5 3.5 8.59 3.73 8.58 4C8.57 4.26 8.47 4.5 8.27 4.7C8.07 4.88 7.84 4.97 7.57 4.98C7.3 4.99 7.07 4.9 6.87 4.7L5 2.82L5 9C5 9.28 4.9 9.52 4.71 9.71C4.52 9.9 4.28 10 4 10ZM10 18.57C9.86 18.57 9.74 18.55 9.62 18.51C9.5 18.47 9.4 18.4 9.3 18.3L5.7 14.7C5.5 14.5 5.4 14.26 5.41 14C5.42 13.73 5.52 13.5 5.72 13.3C5.92 13.11 6.15 13.02 6.42 13.01C6.69 13 6.92 13.1 7.12 13.3L9 15.17L9 9C9 8.71 9.09 8.47 9.28 8.28C9.47 8.09 9.71 8 10 8C10.28 8 10.52 8.09 10.71 8.28C10.9 8.47 11 8.71 11 9L11 15.17L12.87 13.3C13.05 13.11 13.28 13.02 13.56 13.02C13.83 13.02 14.07 13.11 14.27 13.3C14.47 13.5 14.57 13.73 14.57 14.01C14.57 14.28 14.47 14.52 14.27 14.72L10.7 18.3C10.6 18.4 10.49 18.47 10.37 18.51C10.25 18.55 10.13 18.57 10 18.57Z" fill="#464F5A" fill-opacity="1.000000" fill-rule="nonzero"/>
</svg>
